# xmcd CD database file
#
# Track frame offsets:
#	150
#	19430
#	38552
#	58010
#
# Disc length: 1026 seconds
#
# Revision: 0
# Processed by: cddbd v1.5PL3 Copyright (c) Steve Scherf et al.
# Submitted via: CDex 1.51
#
DISCID=2d040004
DTITLE=J-WALK - 君にいて欲しい
DYEAR=1900
DGENRE=JPop
TTITLE0=君にいて欲しい
TTITLE1=思い出に手を振って・・・
TTITLE2=君にいて欲しい カラオケバージョン
TTITLE3=思い出に手を振って・・・ カラオケバージョン
EXTD=
EXTT0=
EXTT1=
EXTT2=
EXTT3=
PLAYORDER=
